<svg width="394" height="378" viewBox="0 0 394 378" fill="none" xmlns="http://www.w3.org/2000/svg">
<path fill-rule="evenodd" clip-rule="evenodd" d="M245.983 2.4465C288.382 9.77172 336.376 14.3917 363.438 47.8459C390.952 81.8595 382.16 130.42 384.832 174.092C387.777 222.233 406.334 274.885 379.789 315.155C352.944 355.882 299.63 371.953 251.115 376.949C207.983 381.391 170.461 354.975 129.439 340.935C88.3136 326.859 35.4079 330.647 10.9135 294.736C-13.5641 258.849 10.7086 211.035 11.2078 167.594C11.7113 123.779 -13.6006 73.5385 13.8479 39.3821C41.3425 5.16816 95.3054 15.9061 138.648 9.00972C174.936 3.2358 209.775 -3.80889 245.983 2.4465Z" fill="#8633B0"/>
</svg>
